<svg xmlns="http://www.w3.org/2000/svg" width="848" height="255.069" viewBox="0 0 848 255.069"><g transform="translate(-39.51 -12.84)" fill="rgba(255,255,255,0)"><path d="M813,267.079a133.9,133.9,0,0,1-45.3-7.634,102.057,102.057,0,0,1-37.173-22.9l16.927-30.7a126.125,126.125,0,0,0,32.693,19.748,85.1,85.1,0,0,0,31.2,6.306c9.127,0,16.595-1.66,21.905-4.978a15.984,15.984,0,0,0,8.463-14.77c0-6.638-3.319-11.285-10.289-13.608-6.8-2.655-16.429-5.808-28.709-9.625a247.276,247.276,0,0,1-34.352-12.944c-9.127-4.481-16.1-9.957-20.91-16.263-4.48-6.306-6.638-14.6-6.638-24.56,0-18.255,6.8-32.526,20.578-43.479a85.629,85.629,0,0,1,54.431-16.1,111.9,111.9,0,0,1,37.5,6.306,87.955,87.955,0,0,1,32.36,19.748L866.434,131.5a86.957,86.957,0,0,0-52.772-21.076,45.743,45.743,0,0,0-20.08,4.149q-8.463,4.232-8.464,14.935c0,6.638,2.656,11.119,8.132,13.94,5.643,2.821,14.106,5.974,25.39,9.293,14.77,4.481,27.05,8.8,37.173,12.944,10.455,4.315,18.254,9.625,23.4,16.263,5.476,6.638,8.3,15.433,8.3,26.718,0,18.254-6.8,32.692-20.246,43.147-13.442,10.123-31.53,15.267-54.265,15.267ZM681.07,132.66c11.284-5.642,24.228-8.3,38.5-8.3V81.215a77.157,77.157,0,0,0-9.459-.332,63.059,63.059,0,0,0-32.526,11.948A80.317,80.317,0,0,0,652.692,122.7V83.539H609.213V124.86c7.634-1.162,23.731,0,26.552,13.276,3.319,16.263-6.638,31.7-26.552,33.854v95.919h47.462V156.225A49.784,49.784,0,0,1,681.07,132.66ZM275.822,115.567V221.608l47.461-15.931v-90.11h39V79.224h-39V19.482H275.822V79.224H251.427v36.343Zm76.835,147.2a204.142,204.142,0,0,0,23.731-8.3l-9.459-37.5-88.949,19.914c0,2.157,1.162,5.476,4.315,11.119a37.9,37.9,0,0,0,17.757,14.437,62.805,62.805,0,0,0,24.063,4.647A95.879,95.879,0,0,0,352.656,262.764ZM194.175,70.927c6.97,3.817,11.451,6.8,13.442,9.127l21.573-39.5a187.522,187.522,0,0,0-38.832-19.25A139.231,139.231,0,0,0,141.4,12.844c-16.927,0-32.36,2.987-46.466,9.127a74.677,74.677,0,0,0-33.19,26.552A73.183,73.183,0,0,0,49.8,91.338c0,12.944,2.489,23.565,7.8,32.028,4.979,8.3,12.944,15.267,23.233,20.91,10.621,5.31,24.063,10.289,40.16,14.77,12.944,3.651,24.229,7.136,33.854,10.123,9.957,3.153,17.591,6.8,23.233,11.285a21.833,21.833,0,0,1,7.965,17.591c0,17.259-13.276,25.722-40.325,25.722a112.847,112.847,0,0,1-28.046-3.485,175.075,175.075,0,0,1-45.3-18.752,76.015,76.015,0,0,1-11.285-8.3L39.51,235.05a173.332,173.332,0,0,0,49.121,23.9c8.3,2.157,25.888,6.306,32.36,5.31l105.046-28.543a64.72,64.72,0,0,0,12.114-42.483c0-15.267-3.319-27.548-9.957-36.675a66.047,66.047,0,0,0-27.879-22.569c-12.114-5.642-26.552-10.621-42.981-14.935q-18.918-4.73-31.862-8.961A51.443,51.443,0,0,1,106.387,99.8a21.242,21.242,0,0,1-6.306-16.263c0-18.752,13.276-28.211,39.828-28.211a122.47,122.47,0,0,1,54.1,15.433ZM145.054,267.41c16.595,0,31.862-2.323,45.968-7.3a74.982,74.982,0,0,0,19.582-9.957l-83.97,16.263,18.254,1Zm255.4-89.115c6.8-9.127,16.263-16.263,28.211-21.076,12.114-4.978,26.054-7.468,41.487-7.468a130.58,130.58,0,0,1,23.9,2.157c5.642.332,10.953,1.328,17.093,1.494l1-.332,2.655-5.808c0-11.617-3.319-20.744-10.621-27.05-6.638-6.306-17.093-9.459-30.7-9.459a81.1,81.1,0,0,0-29.041,5.144,151.942,151.942,0,0,0-29.041,15.6l-15.267-31.033a137.737,137.737,0,0,1,78.328-23.9c26.386,0,46.964,6.638,61.4,19.748,15.267,12.114,17.424,19.582,20.743,42.815l-48.457,13.94v.332h-1L397.131,186.261l3.319-7.966Zm164.29,43.977c-1.659-1.991-2.489-5.642-2.489-10.787l-.166-29.539L513.295,191.9l1.659,11.119c0,4.978-2.821,10.455-8.8,16.1a55.925,55.925,0,0,1-37.5,14.106c-10.621,0-18.752-2.821-24.395-8.3a26.22,26.22,0,0,1-8.629-19.084l-44.806,7.966c0,10.953,2.655,16.927,8.132,25.722a61.9,61.9,0,0,0,56.09,28.211,84.888,84.888,0,0,0,36.509-8.132,82.644,82.644,0,0,0,30.535-24.229l1,9.459a25.538,25.538,0,0,0,8.961,15.6c4.979,4.149,12.114,6.306,21.574,6.306,2.323,0,5.144-.332,8.464-.664a79.67,79.67,0,0,0,11.616-1.825V225.923c-4.149-.5-7.136-1.659-8.8-3.651Z" stroke="none"/><path d="M 655.675048828125 266.9082641601562 L 655.675048828125 155.9929351806641 L 655.7767944335938 155.7849273681641 C 658.3773803710938 150.470703125 661.8535766601562 145.6919250488281 666.1088256835938 141.5814819335938 C 670.3589477539062 137.4758453369141 675.248291015625 134.1702575683594 680.6415405273438 131.7557983398438 C 686.27001953125 128.9437255859375 692.443359375 126.8111724853516 698.9913940429688 125.4170455932617 C 705.1004028320312 124.1164245605469 711.6823120117188 123.4274139404297 718.569580078125 123.3666687011719 L 718.569580078125 82.12889862060547 C 716.4356689453125 81.9483642578125 714.27685546875 81.85693359375 712.1394653320312 81.85693359375 C 711.4833374023438 81.85693359375 710.8180541992188 81.86560821533203 710.1614379882812 81.88262939453125 C 698.6002197265625 82.74069976806641 687.53955078125 86.80596923828125 678.17529296875 93.63904571533203 C 672.9563598632812 97.45671081542969 668.2113647460938 101.9110412597656 664.0718383789062 106.8783721923828 C 659.9322509765625 111.845817565918 656.4066162109375 117.3162612915039 653.5927124023438 123.1379318237305 L 651.6923828125 122.7027053833008 L 651.6923828125 84.53871154785156 L 610.21337890625 84.53871154785156 L 610.21337890625 123.7211608886719 C 611.4349975585938 123.5861968994141 612.7445678710938 123.5158233642578 614.0609130859375 123.5158233642578 C 616.3665771484375 123.5158233642578 618.6221313476562 123.7233734130859 620.7650146484375 124.1327056884766 C 623.2732543945312 124.61181640625 625.5588989257812 125.3588180541992 627.55859375 126.3530426025391 C 629.8768310546875 127.505485534668 631.813232421875 128.9938201904297 633.3142700195312 130.7765960693359 C 635.0091552734375 132.7897033691406 636.1629028320312 135.1958160400391 636.7434692382812 137.9281463623047 L 636.7451782226562 137.93603515625 C 637.5897216796875 142.0743713378906 637.61328125 146.1653747558594 636.81494140625 150.0955963134766 C 636.0183715820312 154.0180358886719 634.4365844726562 157.6197052001953 632.1138305664062 160.8002624511719 C 629.6917114257812 164.1167144775391 626.5565795898438 166.8443756103516 622.7955932617188 168.9074859619141 C 619.0875244140625 170.9414978027344 614.8584594726562 172.2755279541016 610.21337890625 172.8777923583984 L 610.21337890625 266.9082641601562 L 655.675048828125 266.9082641601562 M 450.9608154296875 266.8771667480469 C 452.2948303222656 266.8771667480469 453.6471557617188 266.8326110839844 454.9803771972656 266.7447204589844 L 455.046142578125 266.7424926757812 C 467.6777038574219 266.7424926757812 479.8178100585938 264.0386962890625 491.1289367675781 258.7062683105469 L 491.1360473632812 258.7029418945312 C 497.0182495117188 255.9861602783203 502.5742492675781 252.5666046142578 507.6499328613281 248.5391540527344 C 512.7255859375 244.5118255615234 517.3184814453125 239.8783721923828 521.3011474609375 234.7675933837891 L 522.824951171875 232.8121490478516 L 524.0772094726562 244.7095184326172 C 524.55322265625 247.6250762939453 525.51611328125 250.3559417724609 526.9391479492188 252.8263702392578 C 528.3599243164062 255.2930145263672 530.2955932617188 257.5977172851562 532.69189453125 259.6763305664062 C 535.0797119140625 261.6649169921875 538.0216674804688 263.18359375 541.4361572265625 264.1901550292969 C 544.9395141601562 265.2229309082031 549.038818359375 265.7466125488281 553.620361328125 265.7466125488281 C 555.5369262695312 265.7466125488281 557.8336791992188 265.511474609375 560.4930419921875 265.2392578125 C 560.9784545898438 265.1896057128906 561.4755859375 265.1387023925781 561.984375 265.0878295898438 L 561.9933471679688 265.0869445800781 C 566.0879516601562 264.7147216796875 569.4291381835938 264.2095947265625 572.7003784179688 263.4643859863281 L 572.7003784179688 226.7981719970703 C 568.8639526367188 226.2294311523438 566.1554565429688 225.0708160400391 564.4557495117188 223.2720642089844 L 564.2705078125 223.2719268798828 L 563.970947265625 222.9123687744141 C 562.1658935546875 220.7461700439453 561.2503662109375 216.9033508300781 561.2496948242188 211.4911499023438 L 561.0907592773438 183.1699981689453 L 514.4238891601562 192.6939086914062 L 515.9540405273438 202.9480438232422 L 515.9540405273438 203.0222625732422 C 515.9540405273438 205.7064819335938 515.1880493164062 208.4901580810547 513.67724609375 211.2959289550781 C 512.1519165039062 214.1288146972656 509.8533630371094 217.0055999755859 506.8455810546875 219.8462677001953 L 506.8229370117188 219.8670349121094 C 496.3954772949219 229.1261596679688 482.9724731445312 234.2257080078125 469.0262756347656 234.2262573242188 C 468.8994750976562 234.2262573242188 468.7750549316406 234.2258148193359 468.6481628417969 234.2250366210938 L 468.6481628417969 234.2250366210938 C 463.2748413085938 234.2245025634766 458.4365234375 233.5015258789062 454.2668151855469 232.0761566162109 C 450.0966491699219 230.6506652832031 446.5003051757812 228.4915466308594 443.5770263671875 225.6582794189453 C 440.7916259765625 223.1359710693359 438.593994140625 220.1208038330078 437.0455932617188 216.6964874267578 C 435.656494140625 213.6244506835938 434.8597106933594 210.3778839111328 434.6714477539062 207.0295104980469 L 391.8294372558594 214.6458892822266 C 391.9576110839844 224.7037048339844 394.4314575195312 230.3719635009766 399.79931640625 238.993896484375 C 402.5768127441406 243.298828125 405.8891906738281 247.2404174804688 409.6451416015625 250.7100372314453 C 413.3399353027344 254.1232604980469 417.4562683105469 257.0733642578125 421.8798217773438 259.4784851074219 C 426.2945861816406 261.8788146972656 430.9994812011719 263.7279357910156 435.8639221191406 264.9741516113281 C 440.7922668457031 266.2369384765625 445.87158203125 266.8771667480469 450.9608154296875 266.8771667480469 M 145.0535888671875 266.4104919433594 C 153.3411560058594 266.4104919433594 161.3359222412109 265.8143615722656 168.8157043457031 264.6386108398438 C 176.4319305419922 263.4414978027344 183.7910461425781 261.6000366210938 190.6888122558594 259.1655883789062 L 190.6989288330078 259.1620483398438 C 196.2061462402344 257.2845764160156 201.2123107910156 254.9533386230469 205.8814239501953 252.0848541259766 L 134.7715606689453 265.8572082519531 L 144.9155578613281 266.4104919433594 L 145.0535888671875 266.4104919433594 M 324.1127014160156 266.0785827636719 C 328.9656066894531 266.0785827636719 333.8211364746094 265.7125854492188 338.5444946289062 264.99072265625 C 343.166259765625 264.2842712402344 347.814697265625 263.2135925292969 352.3607177734375 261.8084716796875 L 352.3847045898438 261.8014831542969 C 360.1141357421875 259.6226196289062 367.7875061035156 256.9575805664062 375.2064208984375 253.8756713867188 L 366.1961364746094 218.1505126953125 L 279.0340576171875 237.6644744873047 C 279.3146667480469 239.8070220947266 280.6674194335938 243.0300140380859 283.1459045410156 247.4698791503906 C 287.5905456542969 254.0408477783203 293.2418823242188 258.631591796875 300.4214782714844 261.5034790039062 L 300.4287109375 261.5063781738281 C 304.0740356445312 262.9977111816406 307.8711547851562 264.1374816894531 311.7144775390625 264.8942565917969 C 315.705810546875 265.6801452636719 319.8771362304688 266.0785827636719 324.1127014160156 266.0785827636719 M 812.9991455078125 266.0785827636719 L 812.9987182617188 266.0785827636719 C 824.1968994140625 266.0785827636719 834.4069213867188 264.8001403808594 843.3447875976562 262.2785949707031 C 847.785400390625 261.0259399414062 852.00146484375 259.4408264160156 855.8760375976562 257.567138671875 C 859.7349243164062 255.7012939453125 863.3619384765625 253.4974975585938 866.6564331054688 251.0171356201172 C 869.939453125 248.4629058837891 872.85498046875 245.6295166015625 875.322509765625 242.5951538085938 C 877.7886962890625 239.5623779296875 879.8746948242188 236.2458190917969 881.522705078125 232.7375946044922 C 883.1734008789062 229.2234802246094 884.4300537109375 225.4203796386719 885.2578125 221.4338226318359 C 886.0886840820312 217.4314880371094 886.510009765625 213.1353759765625 886.510009765625 208.6644897460938 C 886.510009765625 203.1858215332031 885.8204956054688 198.2055969238281 884.4605102539062 193.8619384765625 C 883.1270141601562 189.6031494140625 881.101806640625 185.8083801269531 878.44091796875 182.5831604003906 L 878.4218139648438 182.5592651367188 C 873.4662475585938 176.1650390625 865.9462890625 170.947265625 855.4345092773438 166.6089324951172 C 845.0738525390625 162.3628997802734 832.599853515625 158.0194244384766 818.356689453125 153.6985015869141 C 807.337646484375 150.4574890136719 798.7401123046875 147.30908203125 792.8032836914062 144.3409271240234 L 792.79248046875 144.3354797363281 C 786.9560546875 141.3285980224609 784.1189575195312 136.4780426025391 784.1189575195312 129.5067138671875 C 784.1189575195312 121.9945983886719 787.1524658203125 116.6687088012695 793.13525390625 113.6768188476562 L 793.1455688476562 113.6717071533203 C 798.95068359375 110.8522644042969 805.8535766601562 109.4225997924805 813.66259765625 109.4225997924805 L 813.709716796875 109.4237060546875 C 823.5028076171875 109.8853759765625 833.0848388671875 111.963264465332 842.1895141601562 115.5993728637695 C 850.9379272460938 119.0933380126953 859.0145874023438 123.933708190918 866.2131958007812 129.9950866699219 L 884.395751953125 101.7814102172852 C 880.0154418945312 97.65449523925781 875.1964721679688 93.97711181640625 870.0602416992188 90.84271240234375 C 864.6900634765625 87.56548309326172 858.9500122070312 84.86792755126953 852.9998168945312 82.82504272460938 L 852.9923706054688 82.82248687744141 C 847.1382446289062 80.76126098632812 841.0730590820312 79.19137573242188 834.9651489257812 78.15648651123047 C 828.7649536132812 77.10604095458984 822.3236083984375 76.57337188720703 815.8199462890625 76.57337188720703 L 815.7697143554688 76.57215118408203 C 814.35791015625 76.50104522705078 812.9259033203125 76.46504211425781 811.5133666992188 76.46504211425781 C 802.6715698242188 76.46504211425781 793.9215087890625 77.84304046630859 785.5060424804688 80.56092834472656 C 777.0814819335938 83.28166198730469 769.1698608398438 87.28824615478516 761.9909057617188 92.46893310546875 C 758.6227416992188 95.14949798583984 755.6441040039062 98.06980895996094 753.1381225585938 101.1487121582031 C 750.6240234375 104.2374877929688 748.5044555664062 107.5854873657227 746.838134765625 111.0999298095703 C 745.1689453125 114.6207122802734 743.9005126953125 118.4223785400391 743.0681762695312 122.3994903564453 C 742.2340698242188 126.3851547241211 741.81103515625 130.6747131347656 741.81103515625 135.1490478515625 C 741.81103515625 145.0284118652344 743.9796142578125 153.0931701660156 748.2556762695312 159.1186370849609 C 753.0167846679688 165.3503112792969 759.9254760742188 170.7172698974609 768.7896118164062 175.0701446533203 C 779.819091796875 180.1902160644531 791.3265991210938 184.5260925292969 802.9924926757812 187.9572601318359 L 803.0070190429688 187.9617156982422 C 816.7579345703125 192.2356719970703 825.6280517578125 195.2094116210938 831.7596435546875 197.6010589599609 C 835.3818969726562 198.8126983642578 838.1475219726562 200.6728210449219 839.9790649414062 203.1299285888672 C 841.7899169921875 205.5590362548828 842.7080688476562 208.5935974121094 842.7080688476562 212.1494903564453 C 842.7080688476562 215.6165924072266 841.9512329101562 218.6879272460938 840.4586791992188 221.2780456542969 C 838.9815063476562 223.8413543701172 836.7293701171875 226.026611328125 833.7651977539062 227.77294921875 C 831.0403442382812 229.4741516113281 827.7362060546875 230.7711486816406 823.94384765625 231.6281585693359 C 820.217041015625 232.4703826904297 815.9765014648438 232.8973693847656 811.3397216796875 232.8973693847656 C 806.1998291015625 232.8973693847656 800.926025390625 232.3531494140625 795.6650390625 231.2799377441406 C 790.5131225585938 230.2289276123047 785.1679077148438 228.6283721923828 779.7777099609375 226.522705078125 L 779.7601318359375 226.5155944824219 C 768.1901245117188 221.7410583496094 757.4241943359375 215.3072052001953 747.7418212890625 207.3827972412109 L 731.7689208984375 236.3536834716797 C 736.8436889648438 241.1777954101562 742.4336547851562 245.482177734375 748.39404296875 249.1541595458984 C 754.5715942382812 252.9599304199219 761.176513671875 256.1047058105469 768.0250244140625 258.5009460449219 L 768.0304565429688 258.5028076171875 C 775.1241455078125 261.0303649902344 782.5205688476562 262.9488220214844 790.0145874023438 264.2047119140625 C 797.4343872070312 265.4481506347656 805.16748046875 266.0785827636719 812.9991455078125 266.0785827636719 M 118.6255950927734 263.4091491699219 C 119.4639129638672 263.4091491699219 120.1897735595703 263.3648071289062 120.7844772338867 263.2772521972656 L 225.4320526123047 234.8422241210938 C 229.6871185302734 228.8896026611328 232.8617248535156 222.3042907714844 234.8692626953125 215.2640380859375 C 236.9090423583984 208.1108245849609 237.6775970458984 200.7216033935547 237.1535949707031 193.3016052246094 L 237.1511535644531 193.2311553955078 C 237.1511535644531 185.7147064208984 236.3253784179688 178.8584899902344 234.6968231201172 172.8529357910156 C 233.0740356445312 166.8690490722656 230.6141510009766 161.5840454101562 227.3854827880859 157.1444854736328 L 227.3775939941406 157.1335906982422 C 220.4477081298828 147.3289337158203 210.9531555175781 139.642822265625 199.9202575683594 134.9061584472656 L 199.8925933837891 134.8938140869141 C 188.0322113037109 129.3697052001953 173.6281280517578 124.3653106689453 157.0821685791016 120.0197143554688 C 144.5184783935547 116.8785400390625 133.7841491699219 113.8595657348633 125.1777267456055 111.0465316772461 C 121.6217956542969 110.0145874023438 118.166145324707 108.6003570556641 114.9069290161133 106.84326171875 C 111.6428146362305 105.0834884643555 108.5580368041992 102.9702606201172 105.738151550293 100.5622634887695 L 105.7110366821289 100.5391540527344 L 105.6857070922852 100.5142669677734 C 101.1575164794922 96.05419921875 98.75122833251953 89.85903167724609 99.08139038085938 83.5128173828125 C 99.08446502685547 78.707763671875 99.95396423339844 74.4287109375 101.6659317016602 70.79348754882812 C 103.3924865722656 67.12726593017578 106.0148162841797 64.02915191650391 109.4598159790039 61.58537673950195 C 112.8703765869141 59.16593170166016 117.1750411987305 57.32892990112305 122.2540435791016 56.12526321411133 C 127.2883758544922 54.93226623535156 133.2284851074219 54.32737731933594 139.9093780517578 54.32737731933594 L 139.9554901123047 54.32848739624023 C 149.4814910888672 54.76837539672852 158.9612579345703 56.31782150268555 168.1314849853516 58.93392944335938 C 177.3018188476562 61.55004119873047 186.1722564697266 65.23537445068359 194.4964904785156 69.8878173828125 L 194.6174774169922 69.95537567138672 L 194.7804260253906 70.11826324462891 C 201.0218505859375 73.54197692871094 205.0924835205078 76.20468902587891 207.3917694091797 78.3787841796875 L 227.8668518066406 40.89372253417969 C 216.0111846923828 33.27693939208984 203.283447265625 27.00655746459961 190.0200347900391 22.24915313720703 L 190.0142669677734 22.24704170227051 C 182.4445953369141 19.47904205322266 174.5821533203125 17.36281967163086 166.645263671875 15.95737552642822 C 158.7099304199219 14.55215358734131 150.6003723144531 13.83970832824707 142.5418243408203 13.83970832824707 C 142.4953002929688 13.83970832824707 142.4487152099609 13.8397331237793 142.4020385742188 13.83978080749512 L 142.4020385742188 13.84437561035156 L 141.4019317626953 13.84437561035156 C 133.0146026611328 13.84437561035156 124.9068145751953 14.59881973266602 117.303596496582 16.0869312286377 C 109.6570434570312 17.58348655700684 102.2660369873047 19.8718204498291 95.33592987060547 22.88837623596191 L 95.31348419189453 22.89781951904297 C 88.73326110839844 25.57326507568359 82.58448791503906 29.17970848083496 77.03770446777344 33.61715316772461 C 71.4949951171875 38.05134582519531 66.62965393066406 43.25447463989258 62.57698440551758 49.08162307739258 C 58.49317932128906 55.30702209472656 55.40817260742188 62.09921264648438 53.40681838989258 69.27048492431641 C 51.40448379516602 76.44537353515625 50.52670669555664 83.85781860351562 50.79792785644531 91.30181884765625 L 50.7985954284668 91.33826446533203 C 50.7987060546875 97.75137329101562 51.43148422241211 103.6257095336914 52.67926406860352 108.7981567382812 C 53.9399299621582 114.0234832763672 55.87981796264648 118.7461547851562 58.44537353515625 122.8350448608398 L 58.45570755004883 122.8519287109375 C 63.20791625976562 130.7720947265625 70.8922119140625 137.6820220947266 81.29375457763672 143.3892211914062 C 91.98467254638672 148.7330017089844 105.4311065673828 153.6765289306641 121.2624816894531 158.0831604003906 C 133.7867126464844 161.6154937744141 144.4342651367188 164.8905944824219 155.1410369873047 168.21337890625 L 155.146484375 168.2151489257812 C 165.3628234863281 171.4502716064453 173.0670471191406 175.1971588134766 178.6994781494141 179.6699371337891 L 178.7224884033203 179.6887054443359 C 181.4847106933594 182.0194854736328 183.5841522216797 184.7408142089844 184.9622650146484 187.7771606445312 C 186.3429260253906 190.8190460205078 187.0430450439453 194.2732696533203 187.0430450439453 198.043701171875 C 187.0430450439453 202.5030364990234 186.1652679443359 206.4595947265625 184.4341583251953 209.8034820556641 C 182.6927032470703 213.1672668457031 180.0440368652344 215.9989318847656 176.5617065429688 218.2198181152344 C 173.1281585693359 220.4095916748047 168.7793731689453 222.0691528320312 163.6360473632812 223.1521606445312 C 158.5517120361328 224.2228240966797 152.5231475830078 224.7657012939453 145.7191467285156 224.7657012939453 L 145.5001525878906 224.7659301757812 C 136.0399322509766 224.7660369873047 126.5941543579102 223.5830383300781 117.4227066040039 221.249267578125 C 101.4212646484375 217.1300354003906 86.09170532226562 210.7849273681641 71.85981750488281 202.3900451660156 L 71.85226440429688 202.3854827880859 C 68.16743469238281 200.1677551269531 64.65236663818359 197.627685546875 61.38700103759766 194.8238830566406 L 40.80006408691406 234.7308044433594 C 47.86182403564453 239.6281890869141 55.33243560791016 244.0167083740234 63.01681900024414 247.7809295654297 C 71.23390960693359 251.8059844970703 79.94282531738281 255.2388000488281 88.9034423828125 257.9846801757812 C 93.82862091064453 259.2647399902344 110.4171371459961 263.4091491699219 118.6255950927734 263.4091491699219 M 276.8214721679688 220.2180023193359 L 322.2830505371094 204.9581146240234 L 322.2830505371094 114.5670394897461 L 361.2810363769531 114.5670394897461 L 361.2810363769531 80.22404479980469 L 322.2830505371094 80.22404479980469 L 322.2830505371094 20.48237609863281 L 276.8214721679688 20.48237609863281 L 276.8214721679688 80.22404479980469 L 252.4269256591797 80.22404479980469 L 252.4269256591797 114.5670394897461 L 276.8214721679688 114.5670394897461 L 276.8214721679688 220.2180023193359 M 398.8546752929688 184.7238464355469 L 505.346923828125 154.0316467285156 C 503.9186401367188 153.8958129882812 502.523193359375 153.7388916015625 501.1483764648438 153.5842590332031 C 498.7040405273438 153.3093719482422 496.395263671875 153.0497131347656 493.9860534667969 152.9079284667969 L 493.9245910644531 152.9043731689453 L 493.8640441894531 152.8932647705078 C 486.0209350585938 151.4527130126953 478.2633666992188 150.7523803710938 470.1480407714844 150.7523803710938 C 454.8080444335938 150.7523803710938 440.9774780273438 153.2395935058594 429.0407104492188 158.1450347900391 L 429.0342712402344 158.147705078125 C 417.3952026367188 162.8357696533203 408.0734558105469 169.7816925048828 401.32470703125 178.7949066162109 L 398.8546752929688 184.7238464355469 M 513.9470825195312 151.5091094970703 L 559.476806640625 138.4115600585938 C 557.8021850585938 126.8053207397461 556.4297485351562 119.7670364379883 553.7891235351562 113.9692611694336 C 552.3856201171875 110.8874893188477 550.6436157226562 108.1981506347656 548.3070678710938 105.5055999755859 C 546.0263671875 102.8777084350586 543.1406860351562 100.2068176269531 539.2254638671875 97.10015106201172 L 539.1748046875 97.05715179443359 C 535.6378173828125 93.84537506103516 531.669921875 90.99026489257812 527.3814697265625 88.57137298583984 C 523.0874633789062 86.14937591552734 518.3568115234375 84.09937286376953 513.3206176757812 82.47848510742188 C 508.2716979980469 80.85337829589844 502.7810363769531 79.61614990234375 497.0012512207031 78.80104064941406 C 491.203369140625 77.98337554931641 484.9604797363281 77.56881713867188 478.4457092285156 77.56881713867188 L 478.4398193359375 77.56881713867188 C 478.1775817871094 77.5672607421875 477.9194946289062 77.56659698486328 477.6573791503906 77.56659698486328 C 463.9942626953125 77.56659698486328 450.4451599121094 79.60715484619141 437.386474609375 83.63159942626953 C 424.6017761230469 87.57157135009766 412.4987182617188 93.34791564941406 401.3995666503906 100.8056182861328 L 415.7784423828125 130.0325469970703 C 420.4995422363281 126.8987274169922 425.19287109375 124.0763092041016 429.7439270019531 121.6348190307617 C 434.5599365234375 119.051155090332 439.376708984375 116.8081512451172 444.0602722167969 114.9680404663086 L 444.0692749023438 114.964599609375 C 453.1239318847656 111.5073776245117 463.0147094726562 109.7543716430664 473.467041015625 109.7543716430664 C 480.3661499023438 109.7543716430664 486.5086975097656 110.5647125244141 491.7241516113281 112.1630401611328 C 497.0258483886719 113.7876968383789 501.4384460449219 116.2469024658203 504.8397216796875 119.4724884033203 C 508.5408325195312 122.6742095947266 511.3365783691406 126.6829223632812 513.1493530273438 131.3873748779297 C 514.9005737304688 135.9321594238281 515.7885131835938 141.2735900878906 515.7885131835938 147.2632598876953 L 515.7885131835938 147.4810485839844 L 513.9470825195312 151.5091094970703 M 656.675048828125 267.9082641601562 L 609.21337890625 267.9082641601562 L 609.21337890625 171.9897155761719 C 629.1273803710938 169.8323822021484 639.0843505859375 154.3990478515625 635.765380859375 138.1360473632812 C 632.9442138671875 124.8601226806641 616.8471069335938 123.6985092163086 609.21337890625 124.8601531982422 L 609.21337890625 83.53871154785156 L 652.6923828125 83.53871154785156 L 652.6923828125 122.7027053833008 C 658.4179077148438 110.8572616577148 666.966064453125 100.5997085571289 677.5848388671875 92.83193206787109 C 687.0982666015625 85.89004516601562 698.36572265625 81.75093078613281 710.110595703125 80.88359832763672 C 713.2675170898438 80.80057525634766 716.426513671875 80.91136932373047 719.569580078125 81.21548461914062 L 719.569580078125 124.3622665405273 C 705.2982788085938 124.3622665405273 692.3541259765625 127.0174865722656 681.06982421875 132.6597137451172 C 670.4303588867188 137.4172668457031 661.797607421875 145.7564849853516 656.675048828125 156.2244873046875 L 656.675048828125 267.9082641601562 Z M 450.9608764648438 267.877197265625 C 430.0337219238281 267.877197265625 410.3998413085938 257.2721557617188 398.9557189941406 239.5309295654297 C 393.4793701171875 230.7358245849609 390.8241577148438 224.7615966796875 390.8241577148438 213.8089294433594 L 435.63037109375 205.8433685302734 C 435.7308044433594 213.1272583007812 438.8572692871094 220.0411529541016 444.2598266601562 224.927490234375 C 449.9022521972656 230.4039306640625 458.0338134765625 233.2250366210938 468.6543884277344 233.2250366210938 C 468.7791748046875 233.2258758544922 468.9015808105469 233.2262878417969 469.0262756347656 233.2262725830078 C 482.7080078125 233.2257080078125 495.922119140625 228.2091827392578 506.158935546875 219.1192626953125 C 512.1331787109375 213.4770355224609 514.9540405273438 208.0007019042969 514.9540405273438 203.0222625732422 L 513.294921875 191.9037017822266 L 562.0839233398438 181.9467163085938 L 562.2496948242188 211.4854888916016 C 562.2496948242188 216.6300354003906 563.079833984375 220.2808227539062 564.7391357421875 222.2722625732422 L 564.9048461914062 222.2723693847656 C 566.5645141601562 224.2637023925781 569.551513671875 225.4252624511719 573.7003784179688 225.9231567382812 L 573.7003784179688 264.2573852539062 C 569.551513671875 265.2531433105469 565.7346801757812 265.7509460449219 562.0839233398438 266.0828247070312 C 558.7648315429688 266.4148254394531 555.943603515625 266.7466125488281 553.620361328125 266.7466125488281 C 544.1611328125 266.7466125488281 537.0255126953125 264.5893859863281 532.0469360351562 260.4406127929688 C 527.068359375 256.1259460449219 524.0810546875 250.9814910888672 523.0855102539062 244.8413696289062 L 522.0899047851562 235.3822631835938 C 513.9891357421875 245.7776031494141 503.5197143554688 254.0848236083984 491.5553588867188 259.6108093261719 C 479.9389343261719 265.087158203125 467.6587219238281 267.7424926757812 455.046142578125 267.7424926757812 C 453.6797180175781 267.8326416015625 452.3182983398438 267.877197265625 450.9608764648438 267.877197265625 Z M 145.0535888671875 267.4104919433594 L 144.8875885009766 267.4104919433594 L 126.6331481933594 266.4148254394531 L 210.6034851074219 250.1517028808594 C 204.7953796386719 254.3003692626953 198.3232574462891 257.619384765625 191.0215911865234 260.1086120605469 C 176.9157104492188 265.087158203125 161.6485900878906 267.4104919433594 145.0535888671875 267.4104919433594 Z M 812.9991455078125 267.0785827636719 L 812.9987182617188 267.0785827636719 C 812.9991455078125 267.0785827636719 812.9991455078125 267.0785827636719 812.9991455078125 267.0785827636719 Z M 324.1127014160156 267.0785827636719 C 315.3174743652344 267.0785827636719 307.351806640625 265.4190368652344 300.050048828125 262.4319458007812 C 292.5823669433594 259.44482421875 286.7742614746094 254.6323699951172 282.2934875488281 247.9944915771484 C 279.1405944824219 242.3521575927734 277.9788208007812 239.0330352783203 277.9788208007812 236.8759307861328 L 366.9277038574219 216.9619293212891 L 376.38671875 254.4662628173828 C 368.6546020507812 257.7171630859375 360.729248046875 260.4881591796875 352.6560363769531 262.763916015625 C 343.5289306640625 265.5850524902344 334.0697021484375 267.0785827636719 324.1127014160156 267.0785827636719 Z M 812.9991455078125 267.0785827636719 C 797.2339477539062 267.0785827636719 782.1329345703125 264.5893859863281 767.69482421875 259.44482421875 C 753.7971801757812 254.5821533203125 741.1159057617188 246.7697143554688 730.5221557617188 236.5440368652344 L 747.44873046875 205.8433685302734 C 757.2809448242188 214.0473785400391 768.3045043945312 220.7064819335938 780.1416015625 225.5912628173828 C 790.7618408203125 229.7400360107422 801.0509033203125 231.8973693847656 811.3397216796875 231.8973693847656 C 820.4663696289062 231.8973693847656 827.9343872070312 230.2379302978516 833.2448120117188 226.9189300537109 C 838.8869018554688 223.5998229980469 841.7080688476562 218.7873687744141 841.7080688476562 212.1494903564453 C 841.7080688476562 205.5114898681641 838.38916015625 200.8649291992188 831.4191284179688 198.5415954589844 C 824.6156005859375 195.8864898681641 814.9903564453125 192.7334899902344 802.7102661132812 188.9165954589844 C 790.954833984375 185.4590454101562 779.4727172851562 181.1324920654297 768.3584594726562 175.9724884033203 C 759.2312622070312 171.4919281005859 752.26171875 166.0155944824219 747.44873046875 159.7094879150391 C 742.968505859375 153.4033813476562 740.81103515625 145.1060485839844 740.81103515625 135.1490478515625 C 740.81103515625 116.8945999145508 747.6146850585938 102.622932434082 761.3887329101562 91.67026519775391 C 777.1747436523438 80.27227020263672 796.373046875 74.59450531005859 815.8199462890625 75.57337188720703 C 829.095703125 75.57337188720703 841.5421752929688 77.73059844970703 853.324462890625 81.87926483154297 C 865.4183959960938 86.0313720703125 876.4617309570312 92.77059936523438 885.6846923828125 101.6272659301758 L 866.4341430664062 131.4981536865234 C 851.7002563476562 118.7614898681641 833.1170654296875 111.3398208618164 813.66259765625 110.4225997924805 C 806.1949462890625 110.4225997924805 799.3908081054688 111.7501525878906 793.5824584960938 114.5712661743164 C 787.9407958984375 117.3924865722656 785.1189575195312 122.3709335327148 785.1189575195312 129.5067138671875 C 785.1189575195312 136.1447143554688 787.7745971679688 140.6253814697266 793.25048828125 143.4464874267578 C 798.8931274414062 146.2675933837891 807.3563842773438 149.4207153320312 818.6406860351562 152.7397155761719 C 833.4105834960938 157.2202606201172 845.6906127929688 161.5349273681641 855.813720703125 165.68359375 C 866.2683715820312 169.9983825683594 874.0678100585938 175.3087158203125 879.2122802734375 181.9467163085938 C 884.688720703125 188.5847015380859 887.510009765625 197.3800354003906 887.510009765625 208.6644897460938 C 887.510009765625 226.9189300537109 880.7060546875 241.3564910888672 867.2640380859375 251.8113708496094 C 853.822021484375 261.9342651367188 835.7339477539062 267.0785827636719 812.9987182617188 267.0785827636719 Z M 118.6255416870117 264.4091491699219 C 110.9495697021484 264.4091491699219 96.06246948242188 260.8792114257812 88.63092803955078 258.9470520019531 C 70.21059417724609 253.3048248291016 53.94759750366211 245.1732635498047 39.51004028320312 235.0503692626953 L 61.0834846496582 193.2311553955078 C 64.58148193359375 196.33837890625 68.35915374755859 199.1160430908203 72.36792755126953 201.5287017822266 C 86.51503753662109 209.8735961914062 101.7658157348633 216.1861572265625 117.6720428466797 220.2808227539062 C 126.7676696777344 222.5953521728516 136.1152038574219 223.7659912109375 145.5001678466797 223.7659149169922 C 145.5723114013672 223.7659149169922 145.6454467773438 223.7658538818359 145.7175903320312 223.7657012939453 C 172.7672576904297 223.7657012939453 186.0430450439453 215.3023681640625 186.0430450439453 198.043701171875 C 186.0430450439453 190.7419281005859 183.3879241943359 184.9337158203125 178.0775909423828 180.4530487060547 C 172.4352569580078 175.9723815917969 164.8015899658203 172.3214874267578 154.8445892333984 169.1684875488281 C 145.2195892333984 166.1813812255859 133.9351501464844 162.6963806152344 120.9910430908203 159.0455932617188 C 104.893928527832 154.5650482177734 91.45204162597656 149.5864868164062 80.83126068115234 144.2760467529297 C 70.54237365722656 138.6339263916016 62.57693099975586 131.6640472412109 57.59826278686523 123.3664855957031 C 52.28804016113281 114.9030456542969 49.7988166809082 104.2823791503906 49.7985954284668 91.33826446533203 C 49.24604034423828 76.17304229736328 53.42159652709961 61.21104049682617 61.74715042114258 48.52337646484375 C 70.00482177734375 36.64471054077148 81.53526306152344 27.42037582397461 94.93682098388672 21.97148704528809 C 109.042594909668 15.83137512207031 124.4759292602539 12.84426403045654 141.4028167724609 12.84437561035156 C 158.096435546875 12.70778656005859 174.6788177490234 15.57448482513428 190.3577117919922 21.30781936645508 C 204.0023803710938 26.20204162597656 217.0332641601562 32.66181945800781 229.1898193359375 40.55781936645508 L 207.6163787841797 80.0537109375 C 205.6251525878906 77.73048400878906 201.1442565917969 74.74337768554688 194.1745910644531 70.92659759521484 L 194.0085906982422 70.76071166992188 C 177.41748046875 61.48793029785156 158.8955993652344 56.20415496826172 139.9093780517578 55.32737731933594 C 113.3573760986328 55.32737731933594 100.0813751220703 64.78648376464844 100.0813751220703 83.53871154785156 C 99.75804138183594 89.61248779296875 102.0540390014648 95.53359985351562 106.3874816894531 99.80181884765625 C 111.9457092285156 104.5481567382812 118.4517059326172 108.0557098388672 125.4717102050781 110.0905990600586 C 134.1010437011719 112.9117050170898 144.7218170166016 115.8988189697266 157.3340454101562 119.0519332885742 C 173.7629241943359 123.3666000366211 188.2005920410156 128.3450469970703 200.3148193359375 133.9872589111328 C 211.5119323730469 138.7944793701172 221.1610412597656 146.6055908203125 228.1942596435547 156.5563812255859 C 234.8321533203125 165.68359375 238.1511535644531 177.9638214111328 238.1511535644531 193.2311553955078 C 239.2204895019531 208.3747100830078 234.9326019287109 223.4122619628906 226.0368194580078 235.7141571044922 L 120.9910430908203 264.2573852539062 C 120.3155670166016 264.3612976074219 119.5200424194336 264.4091491699219 118.6255416870117 264.4091491699219 Z M 275.8214721679688 221.6084899902344 L 275.8214721679688 115.5670394897461 L 251.4269256591797 115.5670394897461 L 251.4269256591797 79.22404479980469 L 275.8214721679688 79.22404479980469 L 275.8214721679688 19.48237609863281 L 323.2830505371094 19.48237609863281 L 323.2830505371094 79.22404479980469 L 362.2810363769531 79.22404479980469 L 362.2810363769531 115.5670394897461 L 323.2830505371094 115.5670394897461 L 323.2830505371094 205.6772613525391 L 275.8214721679688 221.6084899902344 Z M 397.1308288574219 186.2613830566406 L 400.4493713378906 178.2957153320312 C 407.2532653808594 169.1685943603516 416.7124938964844 162.03271484375 428.6605834960938 157.2201538085938 C 440.7750549316406 152.2417144775391 454.7149353027344 149.7523803710938 470.1480407714844 149.7523803710938 C 478.1137084960938 149.7523803710938 485.9132690429688 150.4161529541016 494.0447082519531 151.9097137451172 C 499.6870422363281 152.2415924072266 504.9977111816406 153.2373809814453 511.1376037597656 153.4033813476562 L 512.1333618164062 153.0713806152344 L 514.7885131835938 147.2632598876953 C 514.7885131835938 135.6467132568359 511.4693603515625 126.5194854736328 504.1678161621094 120.2134857177734 C 497.5299377441406 113.9073791503906 487.0749206542969 110.7543716430664 473.467041015625 110.7543716430664 C 463.3442687988281 110.7543716430664 453.5532531738281 112.413818359375 444.4259338378906 115.8988189697266 C 435.1330261230469 119.5497055053711 425.5077209472656 124.6941528320312 415.3849182128906 131.498046875 L 400.1177062988281 100.4654846191406 C 422.9819030761719 84.89178466796875 450.0050048828125 76.56656646728516 477.6573486328125 76.56656646728516 C 477.9214477539062 76.56656646728516 478.1814880371094 76.56730651855469 478.4457092285156 76.56881713867188 C 504.8316040039062 76.56881713867188 525.4094848632812 83.20671081542969 539.8470458984375 96.31681823730469 C 555.1141357421875 108.4310455322266 557.2713623046875 115.8988189697266 560.5905151367188 139.1317138671875 L 512.1333618164062 153.0713806152344 L 512.1333618164062 153.4033813476562 L 511.1376953125 153.4033813476562 L 397.1308288574219 186.2613830566406 Z" stroke="none" fill="rgba(255,255,255,0.18)"/></g></svg>