<svg width="124" height="105" viewBox="0 0 124 105" fill="none" xmlns="http://www.w3.org/2000/svg">
  <path d="M92.681 37.012C92.3148 35.6612 91.6015 34.4298 90.6119 33.4401C89.6222 32.4505 88.3908 31.7372 87.04 31.371C82.033 30 62 30 62 30C62 30 41.967 30 36.958 31.318C35.6085 31.7037 34.3808 32.43 33.3931 33.4272C32.4054 34.4243 31.6908 35.6589 31.318 37.012C30 42.02 30 52.405 30 52.405C30 52.405 30 62.843 31.318 67.8C31.6845 69.1505 32.398 70.3816 33.3876 71.3711C34.3772 72.3605 35.6084 73.0737 36.959 73.44C42.019 74.81 62 74.81 62 74.81C62 74.81 82.033 74.81 87.041 73.492C88.3918 73.1258 89.6232 72.4125 90.6129 71.4229C91.6025 70.4332 92.3158 69.2018 92.682 67.851C94 62.843 94 52.458 94 52.458C94 52.458 94.053 42.02 92.682 37.012H92.681Z" fill="#FF0000"/>
  <path d="M55.6211 62.0001L72.2801 52.4051L55.6211 42.8101V62.0001Z" fill="white"/>
</svg>
